<svg aria-hidden="true" style="position: absolute; width: 0; height: 0; overflow: hidden;" version="1.1" xmlns="http://www.w3.org/2000/svg" xmlns:xlink="http://www.w3.org/1999/xlink">
<defs>
<symbol id="icon-gus3" viewBox="0 0 32 32">
<path fill="#000" style="fill: var(--color1, #000)" d="M25.702 19.704c-0.883 3.040-2.556 6.219-5.6 7.078-2.95 0.832-5.608-1.461-8.128-3.204-2.383-1.647-4.981-3.336-5.467-6.194-0.521-3.065 0.737-6.208 2.995-8.345 2.222-2.104 5.364-2.932 8.378-2.421 2.866 0.486 5.143 2.471 6.635 4.967 1.476 2.469 1.99 5.355 1.187 8.119z"></path>
<path fill="#d9d9d9" style="fill: var(--color2, #d9d9d9)" d="M26.273 17.731c-13.299-1.547-12.525 2.474-10.475 4.677 0.231 1.309 3.371 0.909 4.912 0.544 0.279-0.475 1.274-1.465 3.029-1.627s1.514-0.611 1.174-0.816c2.63-0.548 1.524-0.878 0.642-0.974 7.627-0.273 3.217-1.553 0.718-1.805z"></path>
<path fill="#000" style="fill: var(--color1, #000)" d="M26.607 17.888c-13.56-1.397-12.644 2.647-10.491 4.843 0.277 1.317 3.453 0.875 5.007 0.489 0.268-0.482 1.248-1.493 3.025-1.677s1.518-0.635 1.167-0.837c2.654-0.584 1.52-0.903 0.621-0.99 6.65-0.928 3.218-1.605 0.671-1.828z"></path>
<path fill="#d9d9d9" style="fill: var(--color2, #d9d9d9)" d="M6.479 15.626c13.363 0.833 11.889 4.653 9.481 6.458-0.459 1.247-3.478 0.297-4.93-0.334-0.19-0.517-0.995-1.668-2.693-2.138s-1.382-0.87-1.011-1.011c-2.491-1.005-1.344-1.134-0.459-1.072-7.458-1.62-2.891-2.099-0.387-1.903z"></path>
<path fill="#000" style="fill: var(--color1, #000)" d="M6.091 15.897c13.593 1.027 11.975 4.844 9.467 6.624-0.506 1.247-3.554 0.249-5.014-0.405-0.178-0.522-0.963-1.69-2.68-2.187s-1.382-0.894-1-1.030c-2.508-1.045-1.336-1.158-0.436-1.084-6.38-2.091-2.883-2.15-0.337-1.918z"></path>
<path fill="#000" style="fill: var(--color1, #000)" d="M20.387 20.623c-0.575 2.681-4.442 6.742-15.312 1.542 5.213-2.225 15.574-5.648 15.312-1.542z"></path>
<path fill="#fff" style="fill: var(--color3, #fff)" d="M16.021 13.605c-0.517-1.242 0.216-1.724 0.647-1.81 0.323 0.216 1.474 0.647 0.905 0.647s-0.41 0.776-0.259 1.164c2.793 3.776 1.164 5.884 0.323 6.466-0.97-0.388-2.586-1.28-1.293-1.746 1.616-0.582 0.323-3.168-0.323-4.72z"></path>
<path fill="#000" style="fill: var(--color1, #000)" d="M15.695 24.057c-1.908 0.537-3.567 0.573-3.705 0.080s1.296-1.326 3.204-1.863c1.908-0.537 3.567-0.573 3.705-0.080s-1.296 1.326-3.204 1.863z"></path>
<path fill="#fff" style="fill: var(--color3, #fff)" d="M19.567 14.269c-1.834 1.011-2.685 0.421-2.881 0-1.339-0.796-1.028-3.513 1.264-3.513s3.909 2.249 1.617 3.513z"></path>
<path fill="#df5b04" style="fill: var(--color4, #df5b04)" d="M18.311 13.527l0.292-0.188c0.524-0.338 1.156-0.466 1.771-0.36 0.035 0.006 0.063 0.032 0.071 0.066l0.603 2.443c0.039 0.158-0.144 0.276-0.272 0.176l-2.475-1.941c-0.065-0.051-0.061-0.151 0.009-0.196z"></path>
<path fill="#ff6b0a" style="fill: var(--color5, #ff6b0a)" d="M18.259 13.513l0.239-0.149c0.564-0.351 1.236-0.486 1.892-0.38 0.026 0.004 0.049 0.018 0.064 0.039l1.511 2.079c0.104 0.143-0.051 0.33-0.211 0.256l-3.482-1.625c-0.090-0.042-0.098-0.167-0.013-0.22z"></path>
<path fill="#797979" style="fill: var(--color6, #797979)" d="M20.135 12.363c0 0.13 0.105 0.236 0.236 0.236s0.236-0.105 0.236-0.236c0-0.13-0.105-0.236-0.236-0.236s-0.236 0.105-0.236 0.236z"></path>
<path fill="#797979" style="fill: var(--color6, #797979)" d="M17.714 12.598c0 0.13 0.105 0.236 0.236 0.236s0.236-0.105 0.236-0.236c0-0.13-0.105-0.236-0.236-0.236s-0.236 0.105-0.236 0.236z"></path>
<path fill="#373500" style="fill: var(--color7, #373500)" d="M19.658 9.42l-0.053-0.281-3.365 0.638 0.289 1.526 0.118-0.023 2.806-0.354 0.44-0.262-0.201-1.061 0.017-0.001-0.002-0.183-0.049 0z"></path>
<path fill="#0c0632" style="fill: var(--color8, #0c0632)" d="M16.246 10.076c0.018 0.095 0.807 0.025 1.763-0.156s1.716-0.405 1.698-0.5c-0.018-0.095-0.807-0.025-1.763 0.156s-1.716 0.405-1.698 0.5z"></path>
<path fill="#373500" style="fill: var(--color7, #373500)" d="M19.934 10.662c1.146 0.066 2.234 1.55-2.547 0.767l2.547-0.767z"></path>
<path fill="#494600" style="fill: var(--color9, #494600)" d="M19.942 10.65c-0.178 0.531-3.071 1.051-3.462 0.656l-0.229-1.227c0.51 0.069 1.418-0.392 2.202-0.257l1.002 0.892 0.252-1.294 0.235 1.23z"></path>
<path fill="#373500" style="fill: var(--color7, #373500)" d="M16.245 9.798c0.018 0.095 0.786 0.029 1.714-0.147s1.667-0.396 1.649-0.491c-0.018-0.095-0.786-0.029-1.714 0.147s-1.667 0.396-1.649 0.491z"></path>
<path fill="#373500" style="fill: var(--color7, #373500)" d="M16.246 10.076c0.018 0.095 0.796 0.027 1.738-0.151s1.691-0.4 1.673-0.495c-0.018-0.095-0.796-0.027-1.738 0.151s-1.691 0.4-1.673 0.495z"></path>
<path fill="#ffd500" style="fill: var(--color10, #ffd500)" d="M19.288 9.616c-0.005 0.007-0.009 0.012-0.013 0.017-0.030 0.045-0.042 0.088-0.033 0.141 0.004 0.022 0.010 0.044 0.015 0.066 0.005 0.019 0.009 0.038 0.013 0.057 0.001 0.005 0.002 0.007 0.008 0.006 0.012-0.003 0.024-0.001 0.033 0.008 0.008 0.008 0.010 0.019 0.006 0.029s-0.011 0.018-0.021 0.022c-0.005 0.002-0.009 0.001-0.014-0.003-0.035-0.028-0.061-0.063-0.082-0.103-0.017-0.033-0.026-0.069-0.037-0.103-0.006-0.020-0.013-0.040-0.019-0.060-0.004-0.013-0.008-0.024-0.016-0.035s-0.017-0.020-0.029-0.027c-0.006 0.012-0.008 0.025-0.006 0.038s0.006 0.024 0.009 0.036c0.004 0.012 0.010 0.024 0.014 0.036 0.012 0.031 0.025 0.063 0.037 0.095 0.019 0.053 0.023 0.108 0.012 0.163-0.001 0.007-0.005 0.011-0.012 0.012-0.017 0.005-0.034-0.004-0.040-0.019-0.005-0.014 0.003-0.032 0.019-0.038 0.006-0.002 0.005-0.005 0.003-0.009-0.012-0.024-0.024-0.048-0.036-0.072-0.014-0.027-0.026-0.055-0.047-0.078-0.028-0.030-0.059-0.045-0.099-0.054-0.003-0.001-0.006-0.001-0.010-0.002 0.001 0.003 0.002 0.005 0.003 0.007 0.047 0.132 0.093 0.259 0.14 0.392 0.003 0.008 0.003 0.008 0.010 0.005 0.027-0.010 0.055-0.020 0.082-0.029 0.005-0.002 0.007-0.001 0.010 0.003 0.021 0.033 0.050 0.057 0.088 0.069 0.008 0.003 0.016 0.007 0.023 0.010 0.009-0.023 0.026-0.043 0.032-0.069 0.005-0.021 0.007-0.042 0.003-0.063-0-0.005 0.001-0.007 0.005-0.008 0.028-0.010 0.056-0.020 0.083-0.030 0.005-0.002 0.006-0.004 0.005-0.009-0.048-0.133-0.094-0.261-0.141-0.395 0-0.001-0-0.002-0.001-0.006zM19.279 9.688c0.001 0 0.002-0 0.003-0 0.001 0.002 0.002 0.005 0.003 0.007 0.023 0.064 0.044 0.123 0.067 0.187 0.004 0.011 0.004 0.011-0.007 0.015-0.004 0.002-0.007 0.001-0.009-0.003-0.009-0.011-0.020-0.018-0.034-0.020-0.006-0.001-0.008-0.004-0.009-0.009-0.005-0.025-0.011-0.050-0.017-0.074-0.006-0.025-0.008-0.046-0.003-0.072 0.002-0.011 0.004-0.021 0.006-0.031zM18.996 9.791c0.001-0 0.001-0.001 0.002-0.001 0.003 0.002 0.006 0.004 0.009 0.006 0.021 0.016 0.038 0.028 0.050 0.051 0.015 0.029 0.030 0.059 0.044 0.088 0.002 0.004 0.002 0.007-0.001 0.011-0.009 0.011-0.014 0.023-0.014 0.037 0 0.007-0.003 0.009-0.013 0.011-0.006 0.001-0.005-0.004-0.006-0.007-0.023-0.065-0.045-0.125-0.068-0.19-0.001-0.002-0.002-0.004-0.002-0.006zM19.311 9.989c0.002-0.001 0.003-0.002 0.006-0.004 0.020-0.013 0.033-0.029 0.032-0.054-0-0.003 0.001-0.005 0.004-0.006s0.005-0.002 0.007-0.003 0.005-0 0.007 0.003c0.009 0.026 0.018 0.052 0.027 0.078 0 0.001-0.001 0.005-0.003 0.006-0.018 0.007-0.037 0.014-0.056 0.020-0.001 0.001-0.005-0.001-0.006-0.002-0.006-0.012-0.012-0.025-0.018-0.038zM19.164 10.041c0.003 0.014 0.006 0.028 0.010 0.042 0.001 0.004-0.002 0.005-0.005 0.006-0.018 0.006-0.035 0.012-0.052 0.019-0.006 0.002-0.008 0.001-0.009-0.005-0.008-0.023-0.016-0.046-0.025-0.069-0.004-0.011-0.004-0.011 0.007-0.014 0.003-0.001 0.006-0.002 0.008 0.001 0.013 0.018 0.032 0.024 0.054 0.023 0.005-0 0.009-0.002 0.013-0.002zM19.202 9.919c0.019 0.023 0.038 0.045 0.061 0.064-0.008 0.011-0.016 0.021-0.024 0.032-0.001 0.002-0.005 0.002-0.007 0.002-0.011-0.002-0.021-0.005-0.032-0.008-0.003-0.001-0.005-0.002-0.004-0.006 0.005-0.025 0.006-0.051 0.005-0.077 0-0.002 0-0.004 0-0.006zM19.306 10.069c0.008 0.017 0.002 0.060-0.008 0.068-0-0-0.001-0-0.001-0-0.006-0.018-0.013-0.036-0.019-0.053-0-0.001 0.001-0.004 0.002-0.005 0.008-0.004 0.017-0.007 0.026-0.010zM19.269 10.149c-0.018-0.003-0.048-0.034-0.051-0.048 0.008-0.003 0.016-0.006 0.023-0.008 0.004-0.002 0.006-0 0.008 0.004 0.005 0.014 0.010 0.029 0.015 0.043 0.001 0.003 0.003 0.006 0.004 0.010zM19.285 10.047c-0.004 0.002-0.009 0.004-0.014 0.005-0.001 0.001-0.005-0.001-0.005-0.002-0.003-0.016 0.002-0.032 0.015-0.041 0.003-0.002 0.005-0.002 0.007 0.001 0.005 0.009 0.009 0.018 0.014 0.027 0.002 0.003 0 0.005-0.003 0.007-0.004 0.001-0.009 0.003-0.013 0.004zM19.221 10.069c-0.004 0.001-0.008 0.003-0.012 0.004s-0.007 0.001-0.008-0.004c-0.002-0.009-0.004-0.018-0.006-0.027-0.001-0.004 0.001-0.006 0.006-0.006 0.014-0.001 0.031 0.009 0.036 0.022 0 0.001-0.001 0.005-0.002 0.005-0.005 0.002-0.009 0.003-0.014 0.005z"></path>
<path fill="#000" style="fill: var(--color1, #000)" d="M16.535 14.223c0.342 0.402 0.917 0.474 1.285 0.161s0.389-0.892 0.048-1.294c-0.342-0.402-0.917-0.474-1.285-0.161s-0.389 0.892-0.048 1.294z"></path>
</symbol>
<symbol id="icon-gus2" viewBox="0 0 32 32">
<path fill="#000" style="fill: var(--color1, #000)" d="M12.967 25.57c-3.126-0.716-6.438-2.224-7.483-5.253-1.013-2.935 1.153-5.756 2.769-8.406 1.528-2.505 3.085-5.231 5.947-5.888 3.069-0.705 6.321 0.385 8.614 2.544 2.256 2.125 3.277 5.254 2.935 8.333-0.325 2.926-2.201 5.345-4.638 6.999-2.411 1.636-5.3 2.323-8.143 1.672z"></path>
<path fill="#f5f5f5" style="fill: var(--color11, #f5f5f5)" d="M13.453 26.885c-5.433 0-2.918-6.914 2.655-6.613 4.255 2.871 2.351 6.613-2.655 6.613z"></path>
<path fill="#000" style="fill: var(--color1, #000)" d="M14.935 14.278c-0.658-1.58 0.274-2.194 0.823-2.304 0.411 0.274 1.876 0.823 1.152 0.823s-0.521 0.987-0.329 1.481c3.554 4.805 1.481 7.487 0.411 8.228-1.234-0.494-3.291-1.629-1.646-2.221 2.057-0.741 0.411-4.032-0.411-6.006z"></path>
<path fill="#c4c4c4" style="fill: var(--color12, #c4c4c4)" d="M21.715 14.666c2.619 10.108-0.247 11.929-2.412 10.033-1.195-0.396-0.664 0.075-0.48-1.003 0.4-0.125-0.077-6.501-0.095-7.772s0.408-1.016 0.622-0.729c0.247-1.852 0.645-0.977 0.814-0.308 0.145-4.72 1.094-2.114 1.551-0.221z"></path>
<path fill="#000" style="fill: var(--color1, #000)" d="M21.609 14.731c2.619 10.108-0.247 11.929-2.412 10.033-1.195-0.396-0.664 0.075-0.48-1.003 0.4-0.125-0.077-6.501-0.095-7.772s0.408-1.016 0.622-0.729c0.247-1.852 0.645-0.977 0.814-0.308 0.144-4.72 1.094-2.114 1.551-0.221z"></path>
<path fill="#fff" style="fill: var(--color3, #fff)" d="M19.447 15.124c-2.333 1.287-3.416 0.536-3.666 0-1.704-1.013-1.308-4.47 1.608-4.47s4.975 2.862 2.058 4.47z"></path>
<path fill="#df5b04" style="fill: var(--color4, #df5b04)" d="M17.944 14.405l0.21-0.208c0.461-0.456 1.126-0.765 1.899-0.882 0.053-0.008 0.112 0.010 0.149 0.046l1.903 1.812c0.118 0.112 0.011 0.256-0.165 0.221l-3.868-0.765c-0.134-0.027-0.204-0.149-0.129-0.223z"></path>
<path fill="#010101" style="fill: var(--color13, #010101)" d="M20.511 11.955h1.283v1.882h-1.283v-1.882z"></path>
<path fill="#010101" style="fill: var(--color13, #010101)" d="M19.57 12.896c0 0.52 0.421 0.941 0.941 0.941s0.941-0.421 0.941-0.941c0-0.52-0.421-0.941-0.941-0.941s-0.941 0.421-0.941 0.941z"></path>
<path fill="#222" style="fill: var(--color14, #222)" d="M20.853 12.896c0 0.52 0.421 0.941 0.941 0.941s0.941-0.421 0.941-0.941c0-0.52-0.421-0.941-0.941-0.941s-0.941 0.421-0.941 0.941z"></path>
<path fill="#8dccf0" style="fill: var(--color15, #8dccf0)" d="M21.11 12.896c0 0.378 0.306 0.684 0.684 0.684s0.684-0.306 0.684-0.684c0-0.378-0.306-0.684-0.684-0.684s-0.684 0.306-0.684 0.684z"></path>
<path fill="#fff" style="fill: var(--color3, #fff)" opacity="0.29" d="M21.195 12.896c0 0.331 0.268 0.599 0.599 0.599s0.599-0.268 0.599-0.599c0-0.331-0.268-0.599-0.599-0.599s-0.599 0.268-0.599 0.599z"></path>
<path fill="#fff" style="fill: var(--color3, #fff)" d="M21.853 12.829c0.127 0.127 0.297 0.162 0.381 0.078s0.048-0.254-0.078-0.381c-0.127-0.127-0.297-0.162-0.381-0.078s-0.048 0.254 0.078 0.381z"></path>
<path fill="#ff6b0a" style="fill: var(--color5, #ff6b0a)" d="M17.891 14.397l0.146-0.14c0.505-0.483 1.219-0.813 2.046-0.946 0.037-0.006 0.077-0.001 0.113 0.015l2.795 1.201c0.184 0.079 0.144 0.277-0.054 0.271l-4.876-0.166c-0.157-0.005-0.26-0.149-0.17-0.235z"></path>
<path fill="#010101" style="fill: var(--color13, #010101)" d="M18.115 12.040h1.283v1.882h-1.283v-1.882z"></path>
<path fill="#010101" style="fill: var(--color13, #010101)" d="M17.174 12.981c0 0.52 0.421 0.941 0.941 0.941s0.941-0.421 0.941-0.941c0-0.52-0.421-0.941-0.941-0.941s-0.941 0.421-0.941 0.941z"></path>
<path fill="#222" style="fill: var(--color14, #222)" d="M18.457 12.981c0 0.52 0.421 0.941 0.941 0.941s0.941-0.421 0.941-0.941c0-0.52-0.421-0.941-0.941-0.941s-0.941 0.421-0.941 0.941z"></path>
<path fill="#8dccf0" style="fill: var(--color15, #8dccf0)" d="M18.714 12.981c0 0.378 0.306 0.684 0.684 0.684s0.684-0.306 0.684-0.684c0-0.378-0.306-0.684-0.684-0.684s-0.684 0.306-0.684 0.684z"></path>
<path fill="#fff" style="fill: var(--color3, #fff)" opacity="0.29" d="M18.799 12.981c0 0.331 0.268 0.599 0.599 0.599s0.599-0.268 0.599-0.599c0-0.331-0.268-0.599-0.599-0.599s-0.599 0.268-0.599 0.599z"></path>
<path fill="#fff" style="fill: var(--color3, #fff)" d="M19.457 12.915c0.127 0.127 0.297 0.162 0.381 0.078s0.048-0.254-0.078-0.381c-0.127-0.127-0.297-0.162-0.381-0.078s-0.048 0.254 0.078 0.381z"></path>
<path fill="#373500" style="fill: var(--color7, #373500)" d="M19.562 8.953l-0.068-0.358-4.281 0.812 0.368 1.942 0.15-0.029 3.57-0.45 0.56-0.333-0.256-1.35 0.021-0.001-0.003-0.233-0.062 0z"></path>
<path fill="#0c0632" style="fill: var(--color8, #0c0632)" d="M15.221 9.789c0.023 0.121 1.027 0.032 2.243-0.199s2.183-0.516 2.16-0.636c-0.023-0.121-1.027-0.032-2.244 0.199s-2.183 0.516-2.16 0.636z"></path>
<path fill="#373500" style="fill: var(--color7, #373500)" d="M19.913 10.534c1.459 0.084 2.843 1.972-3.241 0.975l3.241-0.975z"></path>
<path fill="#494600" style="fill: var(--color9, #494600)" d="M19.923 10.518c-0.227 0.676-3.908 1.338-4.406 0.835l-0.292-1.562c0.649 0.088 1.804-0.498 2.803-0.327l1.275 1.135 0.32-1.647 0.299 1.566z"></path>
<path fill="#373500" style="fill: var(--color7, #373500)" d="M15.219 9.434c0.023 0.121 1 0.037 2.182-0.187s2.122-0.504 2.099-0.625c-0.023-0.121-1-0.037-2.182 0.187s-2.122 0.504-2.099 0.625z"></path>
<path fill="#373500" style="fill: var(--color7, #373500)" d="M15.221 9.789c0.023 0.121 1.013 0.035 2.212-0.193s2.152-0.51 2.129-0.63c-0.023-0.121-1.013-0.035-2.212 0.193s-2.152 0.51-2.129 0.63z"></path>
<path fill="#ffd500" style="fill: var(--color10, #ffd500)" d="M19.091 9.204c-0.006 0.008-0.012 0.015-0.017 0.022-0.038 0.057-0.053 0.113-0.042 0.179 0.005 0.028 0.013 0.056 0.019 0.084 0.006 0.024 0.011 0.049 0.017 0.073 0.001 0.006 0.003 0.009 0.010 0.007 0.015-0.004 0.031-0.002 0.042 0.011 0.010 0.011 0.012 0.024 0.008 0.037s-0.014 0.022-0.027 0.027c-0.007 0.002-0.012 0.001-0.018-0.004-0.044-0.036-0.078-0.080-0.104-0.131-0.021-0.042-0.033-0.087-0.047-0.132-0.008-0.025-0.017-0.050-0.024-0.076-0.005-0.016-0.010-0.031-0.020-0.044s-0.021-0.025-0.037-0.034c-0.007 0.016-0.010 0.033-0.007 0.049 0.002 0.015 0.007 0.031 0.012 0.045 0.005 0.016 0.013 0.031 0.018 0.046 0.016 0.040 0.032 0.080 0.047 0.12 0.024 0.068 0.029 0.137 0.015 0.207-0.002 0.009-0.007 0.014-0.016 0.016-0.022 0.006-0.043-0.005-0.050-0.024-0.007-0.018 0.004-0.041 0.024-0.049 0.007-0.003 0.007-0.006 0.004-0.012-0.015-0.030-0.030-0.061-0.045-0.092-0.017-0.035-0.032-0.070-0.060-0.099-0.036-0.038-0.076-0.058-0.127-0.069-0.004-0.001-0.007-0.001-0.013-0.002 0.001 0.004 0.002 0.007 0.003 0.009 0.060 0.169 0.118 0.33 0.179 0.499 0.003 0.010 0.003 0.010 0.013 0.006 0.035-0.012 0.070-0.025 0.104-0.037 0.006-0.002 0.009-0.001 0.013 0.004 0.027 0.043 0.064 0.072 0.112 0.088 0.010 0.003 0.020 0.009 0.030 0.013 0.012-0.030 0.034-0.055 0.041-0.088 0.006-0.027 0.008-0.054 0.004-0.081-0.001-0.006 0.001-0.009 0.007-0.011 0.035-0.013 0.071-0.025 0.106-0.038 0.006-0.002 0.008-0.004 0.006-0.011-0.061-0.169-0.119-0.332-0.18-0.502 0-0.001-0-0.003-0.002-0.008zM19.081 9.295c0.001 0 0.002-0 0.003-0 0.001 0.003 0.002 0.006 0.003 0.009 0.029 0.081 0.056 0.156 0.085 0.238 0.005 0.013 0.005 0.013-0.009 0.018-0.005 0.002-0.008 0.002-0.012-0.003-0.011-0.014-0.026-0.023-0.043-0.025-0.007-0.001-0.010-0.005-0.011-0.011-0.007-0.031-0.013-0.064-0.022-0.095-0.008-0.033-0.010-0.059-0.004-0.092 0.002-0.014 0.005-0.026 0.008-0.039zM18.72 9.426c0.001-0 0.001-0.001 0.002-0.001 0.004 0.003 0.008 0.005 0.011 0.008 0.026 0.020 0.048 0.036 0.063 0.065 0.019 0.037 0.038 0.075 0.057 0.112 0.003 0.005 0.003 0.009-0.002 0.014-0.011 0.013-0.018 0.029-0.018 0.047 0 0.008-0.004 0.012-0.016 0.014-0.008 0.001-0.007-0.005-0.008-0.009-0.030-0.083-0.057-0.159-0.087-0.242-0.001-0.002-0.002-0.005-0.003-0.007zM19.121 9.677c0.002-0.001 0.005-0.003 0.007-0.005 0.025-0.016 0.042-0.037 0.041-0.069-0-0.004 0.001-0.007 0.005-0.008s0.006-0.002 0.009-0.003 0.007-0 0.008 0.004c0.012 0.033 0.024 0.066 0.035 0.099 0.001 0.002-0.001 0.007-0.003 0.008-0.024 0.009-0.048 0.018-0.071 0.026-0.002 0.001-0.006-0.001-0.007-0.003-0.008-0.016-0.015-0.032-0.023-0.049zM18.933 9.744c0.004 0.018 0.008 0.035 0.013 0.053 0.001 0.005-0.002 0.006-0.006 0.007-0.022 0.008-0.044 0.015-0.067 0.024-0.007 0.002-0.010 0.001-0.012-0.006-0.010-0.029-0.021-0.058-0.032-0.088-0.005-0.014-0.005-0.014 0.009-0.018 0.004-0.001 0.007-0.003 0.010 0.002 0.017 0.023 0.041 0.030 0.068 0.029 0.006-0.001 0.011-0.002 0.016-0.002zM18.982 9.588c0.024 0.029 0.048 0.057 0.078 0.081-0.010 0.014-0.020 0.027-0.030 0.040-0.001 0.002-0.006 0.003-0.009 0.002-0.014-0.003-0.027-0.007-0.041-0.010-0.004-0.001-0.006-0.003-0.005-0.008 0.007-0.032 0.007-0.065 0.006-0.098 0.001-0.003 0-0.006 0.001-0.008zM19.115 9.78c0.010 0.022 0.002 0.076-0.010 0.087-0.001-0-0.001-0.001-0.001-0.001-0.008-0.023-0.017-0.045-0.024-0.068-0.001-0.002 0.001-0.005 0.003-0.007 0.011-0.005 0.022-0.008 0.033-0.012zM19.068 9.881c-0.023-0.004-0.061-0.043-0.064-0.061 0.010-0.003 0.020-0.007 0.030-0.011 0.006-0.002 0.008-0 0.010 0.005 0.007 0.018 0.013 0.037 0.020 0.055 0.002 0.004 0.003 0.008 0.005 0.012zM19.087 9.751c-0.006 0.002-0.012 0.005-0.018 0.006-0.002 0.001-0.006-0.002-0.006-0.003-0.004-0.020 0.002-0.041 0.019-0.052 0.004-0.002 0.006-0.002 0.008 0.001 0.006 0.011 0.011 0.022 0.018 0.034 0.002 0.004 0 0.007-0.004 0.008-0.005 0.001-0.011 0.004-0.017 0.006zM19.007 9.78c-0.005 0.002-0.010 0.004-0.015 0.005s-0.009 0.001-0.010-0.005c-0.003-0.011-0.005-0.023-0.007-0.034-0.001-0.006 0.001-0.008 0.007-0.008 0.018-0.001 0.040 0.011 0.046 0.028 0.001 0.002-0.001 0.006-0.003 0.007-0.006 0.003-0.012 0.004-0.018 0.006z"></path>
<path fill="#000" style="fill: var(--color1, #000)" d="M15.588 15.066c0.435 0.511 1.167 0.603 1.635 0.204s0.495-1.135 0.061-1.646c-0.435-0.511-1.167-0.603-1.635-0.204s-0.495 1.135-0.061 1.646z"></path>
<path fill="#c4c4c4" style="fill: var(--color12, #c4c4c4)" d="M19.591 15.143c2.619 10.108-0.247 11.929-2.412 10.033-1.195-0.396-0.664 0.075-0.48-1.003 0.4-0.125-0.077-6.501-0.095-7.772s0.408-1.016 0.622-0.729c0.247-1.852 0.645-0.977 0.814-0.308 0.144-4.72 1.094-2.114 1.551-0.221z"></path>
<path fill="#000" style="fill: var(--color1, #000)" d="M19.437 15.217c2.619 10.108-0.247 11.929-2.412 10.033-1.195-0.396-0.664 0.075-0.48-1.003 0.4-0.125-0.077-6.501-0.095-7.772s0.408-1.016 0.622-0.729c0.247-1.852 0.645-0.977 0.814-0.308 0.144-4.72 1.094-2.114 1.551-0.221z"></path>
<path fill="#000" style="fill: var(--color1, #000)" d="M7.591 22.506h18.909v5.134h-18.909v-5.134z"></path>
</symbol>
<symbol id="icon-gus1" viewBox="0 0 32 32">
<path fill="#000" style="fill: var(--color1, #000)" d="M6.621 10.299c1.413-2.886 4.032-4.173 7.227-4.501 3.095-0.318 6.648 1.349 8.865 3.531 2.095 2.063 4.399 4.205 4.386 7.147-0.014 3.156-1.82 6.080-4.451 7.823-2.589 1.716-5.875 1.997-8.8 0.96-2.781-0.986-5.472-2.116-6.528-4.872-1.045-2.727-1.983-7.463-0.698-10.088z"></path>
<path fill="#000" style="fill: var(--color1, #000)" d="M12.102 21.605c0.934 3.532 4.722 8.3 12.402-0.889-4.526-2.008-13.343-4.642-12.402 0.889z"></path>
<path fill="#000" style="fill: var(--color1, #000)" d="M15.518 13.769c0.712-1.708-0.297-2.372-0.89-2.491-0.445 0.297-2.028 0.89-1.245 0.89s0.563 1.067 0.356 1.601c-3.843 5.195-1.601 8.095-0.445 8.896 1.334-0.534 3.558-1.761 1.779-2.402-2.224-0.801-0.445-4.359 0.445-6.494z"></path>
<path fill="#000" style="fill: var(--color1, #000)" d="M16.772 25.945c1.38 0.012 2.503-0.364 2.507-0.841s-1.111-0.874-2.491-0.886c-1.38-0.012-2.503 0.364-2.507 0.841s1.111 0.874 2.491 0.886z"></path>
<path fill="#d9d9d9" style="fill: var(--color2, #d9d9d9)" d="M18.063 15.734c-5.462 1.764-4.331 3.545-3.084 4.215 0.36 0.584 1.491-0.2 2.012-0.664 0.010-0.28 0.19-0.942 0.835-1.351s0.459-0.578 0.286-0.612c0.904-0.758 0.408-0.707 0.047-0.588 2.892-1.568 0.923-1.351-0.095-1z"></path>
<path fill="#fafafa" style="fill: var(--color16, #fafafa)" d="M18.261 15.832c-5.531 1.885-4.342 3.65-3.055 4.297 0.379 0.579 1.516-0.231 2.037-0.709 0.004-0.282 0.174-0.95 0.823-1.374s0.456-0.59 0.278-0.621c0.905-0.78 0.401-0.719 0.035-0.591 2.379-1.697 0.913-1.376-0.118-1.003z"></path>
<path fill="#fff" style="fill: var(--color3, #fff)" d="M12.427 13.45c1.672 0.922 2.448 0.384 2.627 0 1.221-0.726 0.938-3.203-1.152-3.203s-3.565 2.051-1.475 3.203z"></path>
<path fill="#df5b04" style="fill: var(--color4, #df5b04)" d="M13.573 12.774l-0.266-0.171c-0.478-0.308-1.054-0.425-1.615-0.328-0.032 0.005-0.057 0.029-0.065 0.060l-0.54 2.185c-0.039 0.158 0.144 0.276 0.272 0.176l2.222-1.743c0.060-0.047 0.055-0.138-0.008-0.179z"></path>
<path fill="#ff6b0a" style="fill: var(--color5, #ff6b0a)" d="M13.62 12.761l-0.218-0.136c-0.514-0.32-1.127-0.443-1.725-0.347-0.023 0.004-0.044 0.017-0.058 0.036l-1.343 1.848c-0.104 0.143 0.051 0.33 0.211 0.256l3.122-1.457c0.082-0.038 0.089-0.153 0.012-0.2z"></path>
<path fill="#797979" style="fill: var(--color6, #797979)" d="M11.91 11.712c0 0.119-0.096 0.215-0.215 0.215s-0.215-0.096-0.215-0.215c0-0.119 0.096-0.215 0.215-0.215s0.215 0.096 0.215 0.215z"></path>
<path fill="#797979" style="fill: var(--color6, #797979)" d="M14.117 11.927c0 0.119-0.096 0.215-0.215 0.215s-0.215-0.096-0.215-0.215c0-0.119 0.096-0.215 0.215-0.215s0.215 0.096 0.215 0.215z"></path>
<path fill="#373500" style="fill: var(--color7, #373500)" d="M12.345 9.028l0.049-0.257 3.068 0.582-0.264 1.392-0.108-0.020-2.558-0.323-0.402-0.239 0.183-0.967-0.015-0.001 0.002-0.167 0.045 0z"></path>
<path fill="#0c0632" style="fill: var(--color8, #0c0632)" d="M15.455 9.627c-0.016 0.087-0.736 0.023-1.608-0.142s-1.565-0.369-1.548-0.456c0.016-0.087 0.736-0.023 1.608 0.142s1.565 0.369 1.548 0.456z"></path>
<path fill="#373500" style="fill: var(--color7, #373500)" d="M12.093 10.161c-1.045 0.060-2.037 1.413 2.323 0.699l-2.323-0.699z"></path>
<path fill="#494600" style="fill: var(--color9, #494600)" d="M12.086 10.15c0.163 0.484 2.8 0.958 3.157 0.599l0.209-1.119c-0.465 0.063-1.293-0.357-2.008-0.234l-0.914 0.813-0.23-1.18-0.214 1.122z"></path>
<path fill="#373500" style="fill: var(--color7, #373500)" d="M15.457 9.373c-0.016 0.087-0.716 0.027-1.563-0.134s-1.52-0.361-1.504-0.448c0.016-0.087 0.716-0.027 1.563 0.134s1.52 0.361 1.504 0.448z"></path>
<path fill="#373500" style="fill: var(--color7, #373500)" d="M15.455 9.627c-0.016 0.087-0.726 0.025-1.585-0.138s-1.542-0.365-1.525-0.452c0.016-0.087 0.726-0.025 1.585 0.138s1.542 0.365 1.525 0.452z"></path>
<path fill="#ffd500" style="fill: var(--color10, #ffd500)" d="M12.682 9.208c0.005 0.006 0.009 0.011 0.012 0.015 0.027 0.041 0.038 0.081 0.030 0.129-0.003 0.020-0.009 0.040-0.014 0.060-0.004 0.018-0.008 0.035-0.012 0.052-0.001 0.005-0.002 0.006-0.008 0.005-0.011-0.003-0.022-0.001-0.030 0.008-0.007 0.008-0.009 0.017-0.006 0.026s0.010 0.016 0.020 0.020c0.005 0.002 0.008 0.001 0.013-0.003 0.032-0.026 0.056-0.057 0.074-0.094 0.015-0.030 0.024-0.063 0.034-0.094 0.006-0.018 0.012-0.036 0.017-0.054 0.003-0.011 0.008-0.022 0.014-0.032s0.015-0.018 0.026-0.024c0.005 0.011 0.007 0.023 0.005 0.035s-0.005 0.022-0.008 0.033c-0.004 0.011-0.009 0.022-0.013 0.033-0.011 0.029-0.023 0.057-0.033 0.086-0.017 0.049-0.021 0.098-0.011 0.149 0.001 0.007 0.005 0.010 0.011 0.011 0.015 0.004 0.031-0.003 0.036-0.017 0.005-0.013-0.003-0.029-0.017-0.035-0.005-0.002-0.005-0.004-0.003-0.008 0.011-0.022 0.022-0.044 0.032-0.066 0.012-0.025 0.023-0.050 0.043-0.071 0.026-0.027 0.054-0.041 0.091-0.050 0.003-0.001 0.005-0.001 0.009-0.002-0.001 0.003-0.002 0.005-0.002 0.007-0.043 0.121-0.085 0.237-0.128 0.357-0.002 0.007-0.002 0.007-0.009 0.005-0.025-0.009-0.050-0.018-0.075-0.027-0.004-0.002-0.007-0.001-0.009 0.003-0.019 0.031-0.046 0.052-0.081 0.063-0.007 0.002-0.014 0.006-0.021 0.009-0.008-0.021-0.024-0.040-0.029-0.063-0.004-0.019-0.006-0.039-0.003-0.058 0.001-0.004-0.001-0.006-0.005-0.008-0.025-0.009-0.051-0.018-0.076-0.027-0.004-0.002-0.006-0.003-0.004-0.008 0.043-0.121 0.085-0.238 0.129-0.36-0-0.001 0-0.002 0.001-0.006zM12.69 9.273c-0.001 0-0.002-0-0.002-0-0.001 0.002-0.002 0.004-0.002 0.007-0.021 0.058-0.040 0.112-0.061 0.171-0.003 0.010-0.003 0.010 0.007 0.013 0.004 0.001 0.006 0.001 0.008-0.002 0.008-0.010 0.019-0.016 0.031-0.018 0.005-0.001 0.007-0.004 0.008-0.008 0.005-0.023 0.010-0.046 0.015-0.068 0.006-0.023 0.007-0.042 0.003-0.066-0.001-0.010-0.004-0.019-0.006-0.028zM12.948 9.367c-0.001-0-0.001-0.001-0.002-0.001-0.003 0.002-0.005 0.004-0.008 0.006-0.019 0.014-0.034 0.025-0.045 0.046-0.014 0.027-0.027 0.054-0.041 0.081-0.002 0.004-0.002 0.006 0.001 0.010 0.008 0.010 0.013 0.021 0.013 0.034-0 0.006 0.003 0.008 0.012 0.010 0.005 0.001 0.005-0.004 0.006-0.006 0.021-0.059 0.041-0.114 0.062-0.174 0.001-0.002 0.002-0.004 0.002-0.005zM12.661 9.547c-0.001-0.001-0.003-0.002-0.005-0.003-0.018-0.011-0.030-0.027-0.029-0.049 0-0.003-0.001-0.005-0.004-0.005s-0.004-0.002-0.007-0.002-0.005-0-0.006 0.003c-0.008 0.023-0.017 0.047-0.025 0.071-0 0.001 0.001 0.005 0.002 0.005 0.017 0.006 0.034 0.013 0.051 0.018 0.001 0.001 0.005-0.001 0.005-0.002 0.006-0.011 0.011-0.023 0.017-0.035zM12.795 9.595c-0.003 0.013-0.006 0.025-0.009 0.038-0.001 0.004 0.002 0.004 0.004 0.005 0.016 0.006 0.032 0.011 0.048 0.017 0.005 0.002 0.007 0.001 0.009-0.004 0.007-0.021 0.015-0.042 0.023-0.063 0.003-0.010 0.003-0.010-0.006-0.013-0.003-0.001-0.005-0.002-0.008 0.001-0.012 0.016-0.029 0.021-0.049 0.021-0.004-0-0.008-0.001-0.011-0.002zM12.76 9.483c-0.017 0.021-0.035 0.041-0.056 0.058 0.007 0.010 0.014 0.020 0.022 0.029 0.001 0.001 0.004 0.002 0.006 0.002 0.010-0.002 0.020-0.005 0.029-0.007 0.003-0.001 0.004-0.002 0.004-0.005-0.005-0.023-0.005-0.047-0.005-0.070-0-0.002-0-0.004-0-0.006zM12.665 9.621c-0.007 0.016-0.001 0.055 0.007 0.062 0-0 0.001-0 0.001-0 0.006-0.016 0.012-0.032 0.017-0.048 0-0.001-0.001-0.004-0.002-0.005-0.008-0.004-0.016-0.006-0.023-0.009zM12.699 9.693c0.016-0.003 0.044-0.031 0.046-0.044-0.007-0.002-0.014-0.005-0.021-0.008-0.004-0.001-0.006-0-0.007 0.003-0.005 0.013-0.009 0.026-0.014 0.039-0.001 0.003-0.002 0.005-0.004 0.009zM12.685 9.6c0.004 0.001 0.008 0.003 0.013 0.004 0.001 0 0.005-0.001 0.005-0.002 0.003-0.014-0.001-0.029-0.014-0.037-0.003-0.002-0.004-0.002-0.006 0.001-0.004 0.008-0.008 0.016-0.013 0.024-0.001 0.003 0 0.005 0.003 0.006 0.004 0.001 0.008 0.002 0.012 0.004zM12.743 9.621c0.004 0.001 0.007 0.003 0.011 0.004s0.006 0.001 0.007-0.003c0.002-0.008 0.004-0.016 0.005-0.025 0.001-0.004-0.001-0.006-0.005-0.006-0.013-0.001-0.028 0.008-0.033 0.020-0 0.001 0.001 0.004 0.002 0.005 0.004 0.002 0.008 0.003 0.013 0.005z"></path>
<path fill="#000" style="fill: var(--color1, #000)" d="M15.193 13.408c-0.311 0.366-0.836 0.432-1.171 0.146s-0.355-0.813-0.044-1.18c0.311-0.366 0.836-0.432 1.171-0.146s0.355 0.813 0.044 1.18z"></path>
<path fill="#c4c4c4" style="fill: var(--color12, #c4c4c4)" d="M22.321 12.316c1.943 1.658 2.537 4.152 1.327 5.571s-3.767 1.224-5.71-0.434c-1.943-1.658-2.537-4.152-1.327-5.571s3.767-1.224 5.71 0.434z"></path>
<path fill="#fff" style="fill: var(--color3, #fff)" d="M22.321 12.316c1.943 1.658 2.658 4.010 1.597 5.254s-3.497 0.908-5.44-0.75c-1.943-1.658-2.658-4.010-1.597-5.254s3.497-0.908 5.44 0.75z"></path>
<path fill="#c4c4c4" style="fill: var(--color12, #c4c4c4)" d="M19.275 14.679l2.821-2.313-1.619 3.145c-0.851 0.111-1.156-0.509-1.203-0.832z"></path>
<path fill="#c4c4c4" style="fill: var(--color12, #c4c4c4)" d="M22.639 11.77c0.452 0.385 0.59 0.965 0.308 1.295s-0.876 0.285-1.328-0.101c-0.452-0.385-0.59-0.965-0.308-1.295s0.876-0.285 1.328 0.101z"></path>
<path fill="#fff" style="fill: var(--color3, #fff)" d="M22.639 11.77c0.452 0.385 0.618 0.932 0.371 1.222s-0.813 0.211-1.265-0.174c-0.452-0.385-0.618-0.932-0.371-1.222s0.813-0.211 1.265 0.174z"></path>
<path fill="#c4c4c4" style="fill: var(--color12, #c4c4c4)" d="M21.912 12.304l0.832-0.677-0.478 0.921c-0.251 0.033-0.341-0.149-0.355-0.244z"></path>
<path fill="#d9d9d9" style="fill: var(--color2, #d9d9d9)" d="M20.375 16.659c-5.462 1.764-4.331 3.545-3.084 4.215 0.36 0.584 1.491-0.2 2.012-0.664 0.009-0.28 0.19-0.942 0.835-1.351s0.459-0.578 0.286-0.612c0.904-0.758 0.408-0.707 0.047-0.588 2.892-1.568 0.923-1.35-0.095-1z"></path>
<path fill="#f8f8f8" style="fill: var(--color17, #f8f8f8)" d="M20.574 16.757c-5.531 1.885-4.342 3.65-3.055 4.297 0.379 0.579 1.516-0.231 2.037-0.709 0.004-0.282 0.174-0.95 0.823-1.374s0.456-0.59 0.278-0.621c0.905-0.78 0.401-0.719 0.035-0.591 2.379-1.697 0.913-1.376-0.118-1.003z"></path>
</symbol>
<symbol id="icon-trezub" viewBox="0 0 20 32">
<path fill="#f2cd13" style="fill: var(--color18, #f2cd13)" d="M17.874 2.977c-5.057 4.907-4.279 12.541-4.244 12.868l0.071 0.618 0.601 0.073c0.177 0.036 1.202 0.254 1.061 1.89-0.106 1.418-1.662 1.636-2.299 1.709-0.531-0.727-2.264-3.744-2.44-12.396 0-0.436 0-0.872 0-1.309 0 0 0.141-3.090 0.283-4.398l-1.026-2.254-1.061 2.181c0.141 1.309 0.283 4.398 0.283 4.398 0 0.436 0 0.872 0 1.309-0.177 8.651-1.91 11.705-2.44 12.396-0.672-0.036-2.193-0.291-2.299-1.709-0.141-1.636 0.884-1.854 1.061-1.89l0.601-0.073 0.071-0.618c0.035-0.327 0.813-7.961-4.244-12.868l-1.238-1.127v23.519h5.128c0.424 3.453 3.501 6.034 3.643 6.143l0.46 0.4 0.46-0.4c0.141-0.109 3.254-2.69 3.643-6.143h5.128v-23.519l-1.202 1.2zM4.683 15.154c-0.743 0.291-1.627 1.054-1.768 2.508h-0.813v-12.141c2.582 3.562 2.617 8.106 2.582 9.633zM5.638 23.042l0.035 0.727h-3.572v-4.617h0.92c0.389 1.454 1.662 2.072 2.829 2.326-0.212 0.727-0.212 1.454-0.212 1.563zM7.123 23.006c0-0.4 0.035-0.981 0.212-1.345 1.309 0.291 1.662 1.381 1.768 2.145h-1.945l-0.035-0.8zM9.139 29.040c-0.743-0.909-1.627-2.217-1.874-3.744h1.874v3.744zM10.058 21.37c-0.071 0.073-0.141 0.182-0.212 0.291-0.071-0.109-0.141-0.182-0.212-0.291-0.389-0.436-0.849-0.8-1.379-1.018 0.495-0.872 1.096-2.326 1.591-4.762 0.495 2.435 1.096 3.926 1.591 4.762-0.531 0.218-0.99 0.545-1.379 1.018zM10.589 29.004v-3.708h1.874c-0.212 1.49-1.096 2.799-1.874 3.708zM12.605 23.006l-0.035 0.763h-1.945c0.106-0.763 0.46-1.854 1.768-2.145 0.177 0.4 0.212 0.981 0.212 1.381zM15.045 15.154c-0.071-1.49 0-6.034 2.582-9.633v12.141h-0.813c-0.141-1.49-0.99-2.217-1.768-2.508zM14.055 23.769l0.035-0.727c0-0.109 0.035-0.836-0.177-1.563 1.132-0.218 2.405-0.872 2.829-2.326h0.919v4.617h-3.607z"></path>
</symbol>
<symbol id="icon-logo-black" viewBox="0 0 100 32">
<path d="M43.846 1.104h-43.846v30h43.846l11.538-15-11.538-15zM19.657 14.075c-0.068-0.055-0.135-0.109-0.202-0.163-0.169-0.137-0.335-0.271-0.506-0.4-0.466-0.356-0.972-0.639-1.553-0.765-0.641-0.14-1.288-0.191-1.928 0.003-0.912 0.276-1.547 0.876-1.967 1.713-0.348 0.696-0.441 1.434-0.35 2.201 0.073 0.601 0.266 1.158 0.621 1.652 0.545 0.759 1.288 1.198 2.217 1.314 0.836 0.105 1.646 0 2.413-0.366 0.262-0.125 0.262-0.128 0.262-0.417v-0.005c0-0.070 0-0.141 0-0.211 0-0.14 0.001-0.28-0-0.421-0-0.028 0-0.052 0-0.073 0.001-0.058 0.001-0.088-0.013-0.104s-0.048-0.016-0.116-0.015c-0.017 0-0.036 0-0.057 0h-2.431c-0.022 0-0.041 0-0.058 0-0.068 0.001-0.101 0.001-0.117-0.015s-0.014-0.046-0.013-0.105c0-0.020 0.001-0.043 0.001-0.070-0.001-0.647-0.001-1.294-0-1.94 0-0.323 0-0.647 0-0.97 0-0.012 0-0.024 0.001-0.036 0.001-0.024 0.001-0.049-0.001-0.072-0.005-0.057 0.015-0.088 0.078-0.082 0.024 0.002 0.048 0.001 0.073 0.001 0.012-0 0.024-0.001 0.036-0.001h6.146c0.040 0 0.074 0.008 0.068 0.059-0.003 0.031 0.017 0.051 0.036 0.072 0.024 0.025 0.049 0.052 0.035 0.097-0.012 0.039-0.009 0.082-0.006 0.125 0.001 0.019 0.003 0.039 0.003 0.058l-0 1.105c-0 1.474-0 2.948 0.003 4.422 0 0.12-0.037 0.196-0.128 0.271-1.144 0.947-2.431 1.609-3.887 1.937-0.861 0.194-1.733 0.248-2.614 0.177-1.041-0.083-2.030-0.35-2.944-0.855-1.677-0.927-2.733-2.335-3.219-4.172-0.214-0.812-0.279-1.639-0.211-2.473 0.255-3.095 2.433-5.51 5.35-6.182 0.833-0.193 1.674-0.22 2.522-0.163 0.65 0.045 1.29 0.146 1.916 0.331 0.937 0.279 1.764 0.759 2.516 1.375 0.088 0.072 0.175 0.145 0.26 0.219 0.108 0.092 0.111 0.145 0.017 0.259-0.474 0.57-0.948 1.138-1.423 1.706-0.237 0.285-0.474 0.57-0.712 0.853-0.006 0.008-0.012 0.016-0.018 0.024-0.026 0.035-0.054 0.073-0.099 0.1zM31.752 9.181c1.764 0.014 3.47 0.634 4.902 1.937 1.112 1.013 1.793 2.276 2.066 3.75 0.303 1.64 0.085 3.211-0.729 4.675-0.966 1.737-2.44 2.851-4.364 3.354-1.655 0.434-3.297 0.346-4.881-0.311-2.063-0.858-3.396-2.398-4.021-4.514-0.559-1.893-0.356-3.733 0.644-5.449 0.974-1.672 2.44-2.72 4.314-3.208 0.646-0.168 1.254-0.234 2.069-0.236zM31.333 12.703c-0.968 0.022-1.965 0.573-2.589 1.723-0.424 0.781-0.523 1.623-0.362 2.493 0.127 0.687 0.426 1.295 0.921 1.794 0.773 0.779 1.719 1.086 2.803 0.961 1.121-0.128 1.954-0.701 2.488-1.685 0.454-0.838 0.548-1.734 0.336-2.656-0.35-1.531-1.634-2.635-3.597-2.63z"></path>
<path d="M99.231 1.104v30h-43.846v-30h43.846zM69.769 9.364v13.056c0 0.014 0 0.028 0.001 0.042 0.001 0.028 0.001 0.055-0.001 0.082-0.006 0.076 0.014 0.12 0.101 0.108 0.021-0.002 0.041-0.001 0.062-0.001 0.010 0 0.021 0.001 0.031 0.001 0.366 0 0.731 0 1.097 0h0.003c0.732 0 1.464 0.001 2.196-0 0.023 0 0.043 0 0.062 0 0.070 0.001 0.105 0.001 0.121-0.016s0.015-0.048 0.013-0.109c-0.001-0.021-0.001-0.045-0.001-0.073v-13.072c0-0.010-0-0.021-0.001-0.031-0.001-0.021-0.001-0.041 0.001-0.062 0.008-0.077-0.019-0.117-0.102-0.108-0.016 0.002-0.034 0.001-0.051 0.001l-0.006-0c-0.007-0-0.014-0-0.020-0-0.369 0-0.739-0-1.109-0-0.74-0-1.48-0.001-2.219 0-0.022 0-0.041-0-0.058-0.001-0.061-0.001-0.092-0.001-0.107 0.014s-0.015 0.046-0.014 0.108c0 0.017 0.001 0.037 0.001 0.060zM88.124 9.183h-5.497c-1.832 0-3.664 0-5.494-0.002-0.007 0-0.015 0-0.022 0-0.006 0-0.013 0-0.019 0-0.027 0-0.055 0.001-0.082-0-0.062-0.003-0.084 0.026-0.079 0.083 0.001 0.017 0.001 0.034 0 0.051-0 0.009-0 0.017-0 0.026v3.126l-0 0.032c-0 0.067-0 0.1 0.016 0.116s0.048 0.015 0.11 0.015l0.043-0h3.453c0.113 0 0.168 0 0.196 0.028s0.027 0.081 0.027 0.188v9.639c0 0.018-0 0.035-0.001 0.049-0.001 0.055-0.001 0.084 0.013 0.099 0.016 0.017 0.049 0.016 0.119 0.016l0.034-0h3.314c0.104 0 0.155 0 0.181-0.026s0.025-0.075 0.025-0.174v-9.639c0-0.021-0-0.039-0.001-0.056-0.001-0.059-0.001-0.091 0.014-0.107 0.016-0.017 0.052-0.017 0.125-0.017l0.046 0h3.515c0.152 0 0.152 0 0.153-0.149v-3.111c0-0.021 0-0.040 0-0.057 0.001-0.068 0.001-0.101-0.015-0.118s-0.049-0.016-0.115-0.015c-0.017 0-0.037 0.001-0.059 0.001z"></path>
</symbol>
</defs>
</svg>
